<svg width="72" height="72" viewBox="0 0 72 72" fill="none" xmlns="http://www.w3.org/2000/svg">
<circle cx="36.0001" cy="35.9999" r="35" transform="rotate(0.213655 36.0001 35.9999)" fill="#A32F2F"/>
<path d="M34.2322 58.7678C35.2085 59.7441 36.7915 59.7441 37.7678 58.7678L53.6777 42.8579C54.654 41.8816 54.654 40.2986 53.6777 39.3223C52.7014 38.346 51.1184 38.346 50.1421 39.3223L36 53.4645L21.8579 39.3223C20.8816 38.346 19.2986 38.346 18.3223 39.3223C17.346 40.2986 17.346 41.8816 18.3223 42.8579L34.2322 58.7678ZM36 15L33.5 15L33.5 57L36 57L38.5 57L38.5 15L36 15Z" fill="white"/>
</svg>
