<svg width="41" height="67" viewBox="0 0 41 67" fill="none" xmlns="http://www.w3.org/2000/svg">
<path d="M33.7915 0.595703H7.47158C5.72646 0.595703 4.05282 1.28895 2.81883 2.52293C1.58485 3.75692 0.891602 5.43056 0.891602 7.17568V59.8155C0.891602 61.5606 1.58485 63.2342 2.81883 64.4682C4.05282 65.7022 5.72646 66.3954 7.47158 66.3954H33.7915C35.5366 66.3954 37.2102 65.7022 38.4442 64.4682C39.6782 63.2342 40.3714 61.5606 40.3714 59.8155V7.17568C40.3714 5.43056 39.6782 3.75692 38.4442 2.52293C37.2102 1.28895 35.5366 0.595703 33.7915 0.595703ZM23.9215 63.1055H17.3415V59.8155H23.9215V63.1055ZM33.7915 56.5255H7.47158V10.4657H33.7915V56.5255Z" fill="white"/>
</svg>
