<svg width="61" height="66" viewBox="0 0 61 66" fill="none" xmlns="http://www.w3.org/2000/svg">
<path d="M26.2598 0.97974C25.687 0.977822 25.1125 0.978158 24.5364 0.980746C21.7635 0.993545 18.9463 1.06588 16.105 1.17057L16.927 4.75038C19.8859 4.41818 23.1298 4.17083 26.3734 4.04716C28.1306 3.98014 29.8772 3.94477 31.5713 3.95368C36.6539 3.98 41.2654 4.4038 44.2825 5.56462L45.5725 6.06133L44.9966 7.3103C40.7879 16.4399 39.8145 25.2477 40.474 33.8897C40.7996 23.6336 45.0929 14.5116 50.729 2.81746C43.0597 1.55195 34.8514 1.00807 26.2598 0.979595V0.97974ZM30.3198 6.55804C29.054 6.55905 27.7637 6.5845 26.4734 6.63369C20.4384 6.86378 14.4243 7.567 10.5047 8.37319C14.8831 16.4378 18.425 24.5209 20.7122 32.4009C20.9967 32.3915 21.2815 32.3936 21.5658 32.4073C22.1477 32.4357 22.7232 32.5141 23.2856 32.636C20.9576 25.2447 18.3059 18.4278 15.0095 11.6212L14.2647 10.0833L15.9571 9.78595C20.2085 9.03844 24.5967 8.7491 28.7731 8.7478C29.0516 8.7478 29.3291 8.74896 29.6055 8.75126C32.2593 8.77427 34.8168 8.91059 37.1864 9.11581L38.7873 9.25458L38.3204 10.7814C35.6122 19.6346 35.0817 29.1425 36.6129 38.1886C36.6386 38.2119 36.664 38.2354 36.6891 38.259C37.2413 38.0669 37.7579 37.871 38.2394 37.6617C37.0441 27.9699 37.5737 17.9711 42.038 7.57692C39.5467 6.94661 35.7491 6.61715 31.5761 6.56538C31.1574 6.56024 30.7386 6.5577 30.3198 6.55804ZM51.3111 7.62006C46.828 17.0475 43.6438 24.6023 43.1218 32.7581C46.0238 23.1515 51.6329 14.5398 58.0247 9.00709C55.806 8.4575 53.5664 7.9948 51.3111 7.62006ZM8.59404 10.2847C5.87716 10.8409 3.22314 11.547 0.656006 12.5226C1.90525 13.5983 4.16362 15.5994 6.90367 18.259C8.16478 16.97 9.45096 15.6966 10.7924 14.5387C10.0819 13.1094 9.34903 11.6913 8.59404 10.2847ZM29.1622 11.3606C27.1897 11.3512 25.1706 11.4072 23.1442 11.5466C22.9316 13.5142 21.7597 15.3549 20.36 17.1652C22.5948 22.4097 24.5248 27.7614 26.2624 33.4433C28.9235 34.2228 31.5563 35.1442 33.6889 36.2482C32.8968 30.1424 33.0051 23.886 34.0336 17.7677C32.1675 15.8536 31.1955 13.7282 31.1176 11.3913C30.4659 11.374 29.8141 11.3638 29.1622 11.3606ZM55.5226 15.2413C51.9411 19.4549 48.7853 24.7322 46.6348 30.4723C50.5833 24.8951 55.4386 20.5449 60.6069 17.472C58.9231 16.704 57.2282 15.9604 55.5226 15.2413ZM11.9686 16.9611C9.85501 18.8576 7.76666 21.134 5.59186 23.3026C10.268 26.0624 14.251 29.3307 17.5001 33.0326C17.7018 32.957 17.9056 32.889 18.1105 32.827C16.5901 27.6361 14.5066 22.3243 11.9686 16.9611ZM45.7683 34.9014C43.3937 37.7471 41.158 39.2494 38.0797 40.4481C38.426 41.774 37.9117 43.2962 36.7279 44.4605C36.0316 45.1451 35.1566 45.9256 33.8772 46.4328C34.0618 46.5413 34.2502 46.6433 34.442 46.7387C36.2326 47.626 39.396 47.3398 42.3349 46.0126C45.2646 44.6895 47.8819 42.4041 48.8519 40.089C49.3381 38.7875 48.9909 38.1088 48.1398 37.1133C47.5339 36.4051 46.6489 35.6911 45.7683 34.9016V34.9014ZM21.137 34.9857C19.5852 34.9716 18.0093 35.4162 16.7069 36.3892C14.8546 37.7731 13.4266 40.241 13.4139 44.433V44.4618L13.4124 44.4905C12.9896 53.3176 13.6442 57.3901 14.941 59.5997C16.0857 61.55 17.9896 62.4836 20.7745 64.2007C20.9072 63.8547 21.0453 63.4291 21.1749 62.8923C21.5047 61.5263 21.7776 59.6502 21.9505 57.575C22.2965 53.425 22.2459 48.4418 21.6673 44.8559L21.3616 42.9591L23.2466 43.3898C27.8252 44.4357 30.4443 44.5593 31.965 44.2929C33.4859 44.0263 34.0013 43.4987 34.8934 42.6213C35.732 41.797 35.7163 41.5003 35.5388 41.0364C35.3611 40.5723 34.6483 39.8076 33.4388 39.0759C31.0199 37.6125 26.9095 36.2556 23.0675 35.2438C22.4373 35.0782 21.7888 34.9915 21.137 34.9857ZM48.523 44.9682C47.0729 46.3709 45.2884 47.5224 43.4141 48.3689C40.3753 49.7411 37.0328 50.3688 34.2597 49.455C33.2807 49.8169 32.712 50.2326 32.4251 50.5767C32.0315 51.049 32.0068 51.3964 32.1402 51.894C32.2736 52.3916 32.671 52.9824 33.1625 53.4075C33.6539 53.8326 34.238 54.0534 34.46 54.0638C41.2368 54.3833 44.1698 52.4521 47.8238 50.2122C48.8894 49.559 49.2972 48.2358 49.1951 46.9145C49.144 46.2539 48.9504 45.6331 48.7269 45.2421C48.6714 45.1423 48.6028 45.0502 48.523 44.9682ZM24.4553 46.2763C24.8503 49.8813 24.8568 54.0871 24.5483 57.7886C24.3677 59.956 24.0885 61.9272 23.7099 63.4956C23.5453 64.1781 23.3641 64.7832 23.1451 65.316L44.3902 64.3863C44.1504 63.502 43.9059 62.614 43.6616 61.7256C42.8454 61.9954 42.0111 62.208 41.1649 62.3618L41.1712 62.4668L39.9669 62.5413C39.2252 62.6296 38.4532 62.6783 37.6522 62.6839L25.5073 63.4332L25.8684 61.764C27.0193 56.4422 27.1254 51.7565 26.4155 46.6305C25.7598 46.5251 25.1062 46.407 24.4552 46.2763H24.4553ZM29.0856 46.9499C29.6574 51.5421 29.5886 55.925 28.7372 60.6404L31.527 60.4684C31.0894 59.8274 30.7887 59.1041 30.6436 58.3432C30.4559 57.3538 30.5603 56.2526 31.2122 55.342C31.241 55.3016 31.2721 55.2629 31.303 55.2239C30.5432 54.5271 29.9086 53.6331 29.621 52.56C29.3149 51.4176 29.506 50.0189 30.4171 48.926C30.7182 48.565 31.0821 48.2392 31.5095 47.9458C31.1315 47.6467 30.8002 47.3296 30.514 46.9992C30.0703 47.0023 29.5951 46.9859 29.0856 46.9499ZM48.2987 52.9589C44.9017 55.0086 41.0851 56.9677 34.3363 56.6496C34.116 56.6389 33.8971 56.6093 33.682 56.5612C33.5034 56.6407 33.4081 56.7418 33.337 56.8412C33.1976 57.036 33.1152 57.3876 33.2054 57.8641C33.3861 58.8171 34.2952 59.8614 35.1417 59.9592C41.1352 60.6513 45.2762 58.7043 47.7906 56.4392C48.9492 55.3955 48.9591 54.7279 48.7885 54.0015C48.703 53.6387 48.5148 53.2869 48.2987 52.9589ZM47.3308 60.0144C46.9284 60.2648 46.5155 60.498 46.093 60.7133C46.332 61.5835 46.5715 62.4537 46.808 63.324L49.6929 62.8103C48.9485 62.1794 48.366 61.5227 47.8985 60.8695C47.6897 60.5777 47.5056 60.2941 47.3308 60.0144Z" fill="white"/>
</svg>
