<svg width="66" height="63" viewBox="0 0 66 63" fill="none" xmlns="http://www.w3.org/2000/svg">
<path d="M42.5157 45.1179C41.5088 45.6319 40.319 46.0745 39.0149 46.4492C35.3146 47.5123 30.3018 48.1466 24.8358 48.1466C19.37 48.1466 14.3575 47.5123 10.6573 46.4492C9.3531 46.0745 8.16337 45.6319 7.15644 45.1179V54.6209C7.15642 54.6226 7.15661 54.6325 7.16453 54.6556C7.17379 54.6827 7.19603 54.7346 7.24831 54.8103C7.35803 54.9693 7.57254 55.1942 7.95324 55.461C8.72252 56.0001 9.94674 56.5546 11.6131 57.0484C14.9239 58.0295 19.5993 58.6605 24.8358 58.6605C30.0722 58.6605 34.7477 58.0289 38.0586 57.0474C39.7251 56.5534 40.9495 55.9987 41.7189 55.4596C42.0997 55.1927 42.3141 54.9678 42.4238 54.8089C42.4761 54.7332 42.4984 54.6815 42.5076 54.6547C42.5153 54.6321 42.5157 54.6225 42.5157 54.6209V45.1179ZM24.8358 37.0057C19.5957 37.0058 14.9155 37.6181 11.5997 38.5708C9.93034 39.0504 8.70325 39.589 7.93277 40.1125C7.30943 40.536 7.18429 40.8031 7.16073 40.8702C7.18429 40.9373 7.30942 41.2045 7.93277 41.628C8.70325 42.1515 9.93034 42.6901 11.5997 43.1697C14.9155 44.1223 19.5957 44.7347 24.8358 44.7347C30.0761 44.7347 34.7566 44.1223 38.0724 43.1697C39.7418 42.6901 40.9689 42.1515 41.7394 41.628C42.361 41.2056 42.4869 40.9387 42.511 40.8707V40.8698C42.4869 40.8017 42.361 40.5348 41.7394 40.1125C40.9689 39.589 39.7418 39.0504 38.0724 38.5708C34.7566 37.6181 30.0761 37.0057 24.8358 37.0057ZM61.901 25.5227C60.9182 26.0254 59.7577 26.4688 58.482 26.8511C54.8229 27.9479 49.86 28.6503 44.4349 28.6503C39.0097 28.6503 33.9456 27.9482 30.1878 26.8554C29.0038 26.5111 27.9145 26.1171 26.9682 25.6764V33.6272C31.5984 33.7691 35.8015 34.368 39.0149 35.2912C40.8534 35.8195 42.4652 36.4809 43.6566 37.2904C44.3436 37.7571 45.0312 38.3743 45.4668 39.1505C50.1357 39.0526 54.3361 38.4122 57.4025 37.5069C59.082 37.0112 60.3339 36.4617 61.1266 35.9376C61.7402 35.532 61.8759 35.2842 61.901 35.237V25.5227ZM4.38718 29.6166C4.3973 29.6304 4.40985 29.649 4.42811 29.6704C4.55556 29.8194 4.81674 30.0449 5.2825 30.3168C6.21236 30.8596 7.66597 31.42 9.59871 31.9213C13.1648 32.8463 18.0668 33.4948 23.5564 33.583V23.0704C17.8427 22.9902 12.647 22.3758 8.75479 21.3973C7.08639 20.9779 5.59554 20.4759 4.38718 19.887V29.6166ZM26.9682 21.7405C27.0672 21.8185 27.1881 21.9065 27.3366 22.0028C28.1512 22.5306 29.4325 23.0825 31.1407 23.5792C34.5347 24.5662 39.2702 25.2385 44.4349 25.2385C49.5996 25.2385 54.223 24.566 57.5025 23.583C59.153 23.0883 60.3757 22.5405 61.1466 22.0204C61.7558 21.6093 61.8801 21.361 61.901 21.3188V11.7102C60.9104 12.2177 59.7435 12.6549 58.4668 13.0258C54.8032 14.09 49.8425 14.7245 44.4349 14.7245C39.0271 14.7245 34.0661 14.09 30.4024 13.0258C29.1256 12.6549 27.959 12.2173 26.9682 11.7097V21.7405ZM23.5564 11.9491C18.0543 12.0294 13.15 12.623 9.58633 13.5189C7.65446 14.0045 6.2121 14.5557 5.29393 15.1015C4.70842 15.4496 4.49656 15.6946 4.42193 15.8036C4.49651 15.9126 4.70814 16.1579 5.29393 16.5061C6.21209 17.052 7.65448 17.6027 9.58633 18.0883C13.15 18.9842 18.0543 19.5773 23.5564 19.6576V11.9491ZM44.4349 3.58371C39.2555 3.58371 34.6301 4.19532 31.3544 5.14684C29.7052 5.62591 28.4944 6.16407 27.735 6.68569C27.1078 7.11657 26.9922 7.38572 26.972 7.44821C26.9923 7.51094 27.1082 7.78011 27.735 8.21073C28.4944 8.73235 29.7052 9.27004 31.3544 9.74911C34.6301 10.7006 39.2555 11.3127 44.4349 11.3127C49.6143 11.3127 54.2397 10.7006 57.5153 9.74911C59.1644 9.27005 60.3749 8.73233 61.1342 8.21073C61.761 7.78019 61.8769 7.51106 61.8972 7.44821C61.877 7.3856 61.7614 7.11648 61.1342 6.68569C60.3749 6.16408 59.1645 5.6259 57.5153 5.14684C54.2397 4.19531 49.6143 3.58372 44.4349 3.58371ZM45.9276 54.6209C45.9274 56.2505 44.8216 57.4521 43.6771 58.254C42.4847 59.0896 40.8701 59.773 39.0287 60.3189C35.3234 61.4172 30.3057 62.0724 24.8358 62.0724C19.3663 62.0724 14.3492 61.4178 10.644 60.3198C8.80244 59.7741 7.18765 59.0908 5.99505 58.255C4.85014 57.4526 3.74471 56.2508 3.7446 54.6209V40.8702L3.74794 40.7189C3.81561 39.1666 4.91696 38.0368 6.01551 37.2904C7.04684 36.5897 8.39329 36.0001 9.92904 35.5116C9.52135 35.419 9.12547 35.3235 8.74241 35.2241C6.6659 34.6855 4.87473 34.0297 3.5623 33.2636C2.90704 32.8811 2.29783 32.4288 1.83497 31.8875C1.36699 31.3402 0.975342 30.61 0.975342 29.7294V15.8036L0.97915 15.6422C1.06019 13.9908 2.37596 12.867 3.55088 12.1685C4.87499 11.3814 6.67747 10.7321 8.75479 10.2099C12.647 9.23143 17.8427 8.61703 23.5564 8.53678V7.44821C23.5564 5.82653 24.6763 4.64741 25.8035 3.87311C26.9847 3.0618 28.5821 2.39945 30.4024 1.87065C34.0661 0.806424 39.0271 0.171875 44.4349 0.171875C49.8425 0.171885 54.8032 0.80645 58.4668 1.87065C60.2873 2.39947 61.8851 3.06176 63.0662 3.87311C64.1934 4.64742 65.3129 5.82657 65.3129 7.44821V35.2998C65.3129 36.9178 64.0969 38.0637 63.0082 38.7835C61.8208 39.5684 60.2114 40.2352 58.3683 40.7793C55.052 41.7583 50.6922 42.4227 45.9276 42.5524V54.6209Z" fill="white"/>
</svg>
