<svg width="75" height="67" viewBox="0 0 75 67" fill="none" xmlns="http://www.w3.org/2000/svg">
<path d="M14.6749 29.5343C14.6749 28.5646 14.1813 27.8219 13.1793 27.2563C12.1296 26.6638 10.6188 26.3469 9.00451 26.3829C7.39576 26.4187 5.86071 26.8043 4.78017 27.4315C3.70826 28.0536 3.2694 28.7795 3.2694 29.5343V45.4969C3.2694 51.454 7.5714 56.0065 12.5544 56.0066H62.7086C67.6916 56.0065 71.9936 51.454 71.9936 45.4969V29.5343C71.9936 28.5646 71.5001 27.8219 70.498 27.2563C69.4485 26.6639 67.9385 26.3466 66.3246 26.3824L66.3251 26.3829C64.7146 26.4205 63.179 26.8056 62.0984 27.4319C61.0272 28.0528 60.5881 28.7775 60.5881 29.5343C60.5881 32.2763 60.3738 35.5592 59.114 38.1915C58.4698 39.5374 57.5336 40.7547 56.1843 41.6281C54.8317 42.5035 53.1639 42.9685 51.1651 42.9685H24.0979C22.0991 42.9685 20.4312 42.5035 19.0787 41.6281C17.7294 40.7547 16.7932 39.5374 16.149 38.1915C14.8891 35.5592 14.6749 32.2763 14.6749 29.5343ZM64.8286 13.5718C64.8286 7.6146 60.5267 3.06213 55.5436 3.06213H19.7193C14.7363 3.06213 10.4344 7.6146 10.4344 13.5718V23.5065C11.9215 23.636 13.3911 24.0175 14.6168 24.7093C16.3015 25.6602 17.5993 27.2638 17.5993 29.5343C17.5993 32.2316 17.8326 34.9349 18.7869 36.9287C19.2498 37.8958 19.8623 38.6515 20.668 39.173C21.4704 39.6923 22.5641 40.044 24.0979 40.044H51.1651C52.6989 40.044 53.7925 39.6923 54.595 39.173C55.4007 38.6515 56.0132 37.8958 56.4761 36.9287C57.4304 34.9349 57.6637 32.2316 57.6637 29.5343C57.6637 27.378 59.0163 25.838 60.6319 24.9016C61.8519 24.1945 63.3262 23.7566 64.8286 23.5665V13.5718ZM67.7531 23.5065C69.2403 23.636 70.7098 24.0175 71.9355 24.7093C73.6202 25.6602 74.918 27.2638 74.918 29.5343V45.4969C74.918 52.7646 69.5953 58.9309 62.7086 58.931H57.0059V65.45C57.0059 66.2576 56.3512 66.9123 55.5436 66.9123C54.7361 66.9123 54.0814 66.2576 54.0814 65.45V58.931H21.1816V65.45C21.1816 66.2576 20.5269 66.9123 19.7193 66.9123C18.9118 66.9123 18.2571 66.2576 18.2571 65.45V58.931H12.5544C5.66767 58.9309 0.344971 52.7646 0.344971 45.4969V29.5343C0.344971 27.38 1.69735 25.8393 3.31224 24.9021C4.53219 24.1941 6.00664 23.7552 7.50993 23.5655V13.5718C7.50993 6.30406 12.8326 0.137696 19.7193 0.137695H55.5436C62.4304 0.137695 67.7531 6.30406 67.7531 13.5718V23.5065Z" fill="white"/>
</svg>
